<?xml version="1.0" encoding="UTF-8"?>
<svg version="1.1" xmlns="http://www.w3.org/2000/svg" width="79" height="87">
<path d="M0 0 C2.875 0.875 2.875 0.875 4.875 2.875 C5.0837331 5.38788398 5.16866353 7.79153727 5.16552734 10.30639648 C5.17560318 11.45540436 5.17560318 11.45540436 5.18588257 12.62762451 C5.20492602 15.1671797 5.20878985 17.70647154 5.2109375 20.24609375 C5.21736079 22.00724905 5.22408879 23.76840326 5.23110962 25.52955627 C5.2430981 29.22423782 5.24678881 32.91882576 5.24560547 36.61352539 C5.24540214 41.3530196 5.27271182 46.09191513 5.30714989 50.83126736 C5.32936283 54.46949533 5.33344475 58.10757792 5.33238602 61.74586678 C5.33475016 63.49341967 5.34361919 65.24097609 5.35905075 66.98846245 C5.37859922 69.43080723 5.37291775 71.87184414 5.36083984 74.31420898 C5.37207886 75.03898941 5.38331787 75.76376984 5.39489746 76.51051331 C5.35391306 79.7640253 5.28749526 81.4390708 3.00479126 83.85145569 C0.875 84.875 0.875 84.875 -1.6875 84.8125 C-4.75210102 83.6338073 -5.49824162 82.7209548 -7.125 79.875 C-7.41967325 77.33677625 -7.5456026 75.04449589 -7.52905273 72.5078125 C-7.53934761 71.40466705 -7.53934761 71.40466705 -7.54985046 70.27923584 C-7.56812512 67.85262652 -7.56428064 65.42666324 -7.55859375 63 C-7.56315488 61.31135854 -7.56846025 59.62271893 -7.57447815 57.93408203 C-7.58341026 54.39673313 -7.58098463 50.85960999 -7.57104492 47.32226562 C-7.55954832 42.78914542 -7.57977631 38.25680337 -7.60896206 33.7237854 C-7.62730634 30.23733573 -7.6270353 26.75107322 -7.62132454 23.2645874 C-7.62117114 21.59323026 -7.6272307 19.92186058 -7.63961601 18.25054932 C-7.6544934 15.9139315 -7.64387508 13.57876001 -7.62670898 11.2421875 C-7.63637695 10.55219666 -7.64604492 9.86220581 -7.65600586 9.15130615 C-7.60482902 5.82494236 -7.29672364 4.10585439 -5.28895569 1.40673828 C-3.125 -0.125 -3.125 -0.125 0 0 Z " fill="#2F7FC1" transform="translate(40.125,1.125)"/>
<path d="M0 0 C3.14157163 1.20829678 3.82589443 1.96145886 5.4375 4.9375 C5.9094954 8.14151295 5.90552956 11.32424812 5.90625 14.55859375 C5.91386353 15.49550552 5.92147705 16.4324173 5.92932129 17.39772034 C5.940116 19.37718036 5.94297795 21.35669731 5.93847656 23.33618164 C5.93750445 26.3611571 5.9791281 29.38359399 6.0234375 32.40820312 C6.02864484 34.33332805 6.03133269 36.25846178 6.03125 38.18359375 C6.0558429 39.53692055 6.0558429 39.53692055 6.08093262 40.91758728 C6.03424989 45.16978219 5.99081454 47.93277702 2.90039062 51.04711914 C2.08763672 51.67094482 1.27488281 52.29477051 0.4375 52.9375 C-5.4375 51.0625 -5.4375 51.0625 -6.5625 49.9375 C-6.67628363 48.48062129 -6.72203831 47.01833981 -6.73950195 45.55712891 C-6.75233719 44.62591217 -6.76517242 43.69469543 -6.77839661 42.73526001 C-6.78947701 41.21501724 -6.78947701 41.21501724 -6.80078125 39.6640625 C-6.808853 38.62937836 -6.81692474 37.59469421 -6.82524109 36.52865601 C-6.83909957 34.33455084 -6.84981379 32.14042395 -6.85766602 29.94628906 C-6.87489206 26.58357109 -6.91876453 23.22183252 -6.96289062 19.859375 C-6.97301574 17.73177809 -6.98153241 15.6041728 -6.98828125 13.4765625 C-7.00578934 12.46711578 -7.02329742 11.45766907 -7.04133606 10.41763306 C-7.03841049 9.480112 -7.03548492 8.54259094 -7.0324707 7.57666016 C-7.03833694 6.75138824 -7.04420319 5.92611633 -7.05024719 5.07583618 C-6.5625 2.9375 -6.5625 2.9375 -4.69328308 1.14364624 C-2.5625 -0.0625 -2.5625 -0.0625 0 0 Z " fill="#0DACDC" transform="translate(73.5625,17.0625)"/>
<path d="M0 0 C2.61974452 1.00759405 3.69613698 1.76992465 5.4375 3.9375 C5.83190918 5.93502808 5.83190918 5.93502808 5.85742188 8.23779297 C5.87333374 9.102341 5.88924561 9.96688904 5.90563965 10.8576355 C5.90584106 11.78891266 5.90604248 12.72018982 5.90625 13.6796875 C5.91386353 14.64021027 5.92147705 15.60073303 5.92932129 16.59036255 C5.94012914 18.62287802 5.94297262 20.65544905 5.93847656 22.68798828 C5.93750571 25.79424077 5.97908869 28.89801152 6.0234375 32.00390625 C6.02864561 33.97916152 6.03133268 35.95442537 6.03125 37.9296875 C6.0558429 39.32053055 6.0558429 39.32053055 6.08093262 40.73947144 C6.00404719 47.93483204 6.00404719 47.93483204 2.90039062 51.06298828 C2.08763672 51.68157715 1.27488281 52.30016602 0.4375 52.9375 C-1.58295442 52.33566251 -3.58361039 51.66443904 -5.5625 50.9375 C-6.72279136 48.61691728 -6.70700313 47.22771226 -6.73950195 44.64306641 C-6.75233719 43.7551944 -6.76517242 42.86732239 -6.77839661 41.95254517 C-6.78578354 40.99109589 -6.79317047 40.02964661 -6.80078125 39.0390625 C-6.808853 38.05255707 -6.81692474 37.06605164 -6.82524109 36.0496521 C-6.83908538 33.95987712 -6.84980598 31.87007949 -6.85766602 29.78027344 C-6.87489362 26.58224784 -6.9187786 23.38525195 -6.96289062 20.1875 C-6.97301609 18.15886178 -6.98153265 16.13021476 -6.98828125 14.1015625 C-7.00578934 13.14416168 -7.02329742 12.18676086 -7.04133606 11.2003479 C-7.01968856 4.58396283 -7.01968856 4.58396283 -4.69604492 1.29833984 C-2.5625 -0.0625 -2.5625 -0.0625 0 0 Z " fill="#88C6E8" transform="translate(6.5625,17.0625)"/>
</svg>
